<svg id="Capa_1" enable-background="new 0 0 512 512" height="512" viewBox="0 0 512 512" width="512" xmlns="http://www.w3.org/2000/svg"><g><path d="m474.219 74.506c1.713 0 3.102-1.39 3.102-3.103 0-1.714-1.389-3.103-3.102-3.103s-3.102 1.389-3.102 3.103c-.001 1.714 1.388 3.103 3.102 3.103z"/><path d="m474.219 94.506c1.713 0 3.102-1.39 3.102-3.103 0-1.714-1.389-3.103-3.102-3.103s-3.102 1.389-3.102 3.103c-.001 1.714 1.388 3.103 3.102 3.103z"/><path d="m474.219 114.506c1.713 0 3.102-1.39 3.102-3.103 0-1.714-1.389-3.103-3.102-3.103s-3.102 1.389-3.102 3.103c-.001 1.714 1.388 3.103 3.102 3.103z"/><path d="m474.219 134.506c1.713 0 3.102-1.39 3.102-3.103 0-1.714-1.389-3.103-3.102-3.103s-3.102 1.389-3.102 3.103c-.001 1.714 1.388 3.103 3.102 3.103z"/><path d="m474.219 154.506c1.713 0 3.102-1.39 3.102-3.103 0-1.714-1.389-3.103-3.102-3.103s-3.102 1.389-3.102 3.103c-.001 1.714 1.388 3.103 3.102 3.103z"/><path d="m474.219 174.506c1.713 0 3.102-1.39 3.102-3.103 0-1.714-1.389-3.103-3.102-3.103s-3.102 1.389-3.102 3.103c-.001 1.714 1.388 3.103 3.102 3.103z"/><path d="m474.219 194.506c1.713 0 3.102-1.39 3.102-3.103 0-1.714-1.389-3.103-3.102-3.103s-3.102 1.389-3.102 3.103c-.001 1.714 1.388 3.103 3.102 3.103z"/><path d="m474.219 214.506c1.713 0 3.102-1.39 3.102-3.103 0-1.714-1.389-3.103-3.102-3.103s-3.102 1.389-3.102 3.103c-.001 1.714 1.388 3.103 3.102 3.103z"/><path d="m474.219 234.506c1.713 0 3.102-1.39 3.102-3.103 0-1.714-1.389-3.103-3.102-3.103s-3.102 1.389-3.102 3.103c-.001 1.714 1.388 3.103 3.102 3.103z"/><path d="m474.219 254.506c1.713 0 3.102-1.39 3.102-3.103 0-1.714-1.389-3.103-3.102-3.103s-3.102 1.389-3.102 3.103c-.001 1.714 1.388 3.103 3.102 3.103z"/><path d="m474.219 274.506c1.713 0 3.102-1.39 3.102-3.103 0-1.714-1.389-3.103-3.102-3.103s-3.102 1.389-3.102 3.103c-.001 1.714 1.388 3.103 3.102 3.103z"/><path d="m474.219 294.506c1.713 0 3.102-1.39 3.102-3.103 0-1.714-1.389-3.103-3.102-3.103s-3.102 1.389-3.102 3.103c-.001 1.714 1.388 3.103 3.102 3.103z"/><path d="m474.219 314.506c1.713 0 3.102-1.39 3.102-3.103 0-1.714-1.389-3.103-3.102-3.103s-3.102 1.389-3.102 3.103c-.001 1.714 1.388 3.103 3.102 3.103z"/><path d="m474.219 334.506c1.713 0 3.102-1.39 3.102-3.103 0-1.714-1.389-3.103-3.102-3.103s-3.102 1.389-3.102 3.103c-.001 1.714 1.388 3.103 3.102 3.103z"/><path d="m474.219 354.506c1.713 0 3.102-1.39 3.102-3.103 0-1.714-1.389-3.103-3.102-3.103s-3.102 1.389-3.102 3.103c-.001 1.714 1.388 3.103 3.102 3.103z"/><path d="m474.219 374.506c1.713 0 3.102-1.39 3.102-3.103 0-1.714-1.389-3.103-3.102-3.103s-3.102 1.389-3.102 3.103c-.001 1.714 1.388 3.103 3.102 3.103z"/><path d="m474.219 394.506c1.713 0 3.102-1.39 3.102-3.103 0-1.714-1.389-3.103-3.102-3.103s-3.102 1.389-3.102 3.103c-.001 1.714 1.388 3.103 3.102 3.103z"/><path d="m463.842 404.882c1.713 0 3.102-1.389 3.102-3.103 0-1.713-1.389-3.102-3.102-3.102s-3.102 1.389-3.102 3.102c0 1.715 1.389 3.103 3.102 3.103z"/><path d="m474.219 414.506c1.713 0 3.102-1.39 3.102-3.103 0-1.714-1.389-3.103-3.102-3.103s-3.102 1.389-3.102 3.103c-.001 1.714 1.388 3.103 3.102 3.103z"/><path d="m463.842 424.882c1.713 0 3.102-1.389 3.102-3.103 0-1.713-1.389-3.102-3.102-3.102s-3.102 1.389-3.102 3.102c0 1.715 1.389 3.103 3.102 3.103z"/><path d="m454.219 408.301c-1.713 0-3.102 1.389-3.102 3.103 0 1.713 1.389 3.103 3.102 3.103s3.102-1.39 3.102-3.103c0-1.714-1.389-3.103-3.102-3.103z"/><path d="m443.842 418.678c-1.713 0-3.102 1.389-3.102 3.102 0 1.714 1.389 3.103 3.102 3.103s3.102-1.389 3.102-3.103c0-1.713-1.389-3.102-3.102-3.102z"/><path d="m434.219 408.301c-1.713 0-3.102 1.389-3.102 3.103 0 1.713 1.389 3.103 3.102 3.103s3.102-1.39 3.102-3.103c0-1.714-1.389-3.103-3.102-3.103z"/><path d="m423.842 418.678c-1.713 0-3.102 1.389-3.102 3.102 0 1.714 1.389 3.103 3.102 3.103s3.102-1.389 3.102-3.103c0-1.713-1.389-3.102-3.102-3.102z"/><path d="m414.219 408.301c-1.713 0-3.102 1.389-3.102 3.103 0 1.713 1.389 3.103 3.102 3.103s3.102-1.39 3.102-3.103c0-1.714-1.389-3.103-3.102-3.103z"/><path d="m403.842 418.678c-1.713 0-3.102 1.389-3.102 3.102 0 1.714 1.389 3.103 3.102 3.103s3.102-1.389 3.102-3.103c0-1.713-1.389-3.102-3.102-3.102z"/><path d="m383.842 418.678c-1.713 0-3.102 1.389-3.102 3.102 0 1.714 1.389 3.103 3.102 3.103s3.102-1.389 3.102-3.103c0-1.713-1.389-3.102-3.102-3.102z"/><path d="m363.842 418.678c-1.713 0-3.102 1.389-3.102 3.102 0 1.714 1.389 3.103 3.102 3.103s3.102-1.389 3.102-3.103c0-1.713-1.389-3.102-3.102-3.102z"/><path d="m334.219 428.301c-1.713 0-3.102 1.389-3.102 3.103 0 1.713 1.389 3.103 3.102 3.103s3.102-1.39 3.102-3.103c0-1.714-1.389-3.103-3.102-3.103z"/><path d="m194.219 434.506c1.713 0 3.102-1.39 3.102-3.103 0-1.714-1.389-3.103-3.102-3.103s-3.102 1.389-3.102 3.103c-.001 1.714 1.388 3.103 3.102 3.103z"/><path d="m163.842 424.882c1.713 0 3.102-1.389 3.102-3.103 0-1.713-1.389-3.102-3.102-3.102s-3.102 1.389-3.102 3.102c0 1.715 1.389 3.103 3.102 3.103z"/><path d="m143.842 424.882c1.713 0 3.102-1.389 3.102-3.103 0-1.713-1.389-3.102-3.102-3.102s-3.102 1.389-3.102 3.102c0 1.715 1.389 3.103 3.102 3.103z"/><path d="m123.842 424.882c1.713 0 3.102-1.389 3.102-3.103 0-1.713-1.389-3.102-3.102-3.102s-3.102 1.389-3.102 3.102c0 1.715 1.389 3.103 3.102 3.103z"/><path d="m103.842 424.882c1.713 0 3.102-1.389 3.102-3.103 0-1.713-1.389-3.102-3.102-3.102s-3.102 1.389-3.102 3.102c0 1.715 1.389 3.103 3.102 3.103z"/><path d="m94.218 414.506c1.713 0 3.102-1.39 3.102-3.103 0-1.714-1.389-3.103-3.102-3.103s-3.102 1.389-3.102 3.103 1.389 3.103 3.102 3.103z"/><path d="m83.842 424.882c1.713 0 3.102-1.389 3.102-3.103 0-1.713-1.389-3.102-3.102-3.102s-3.102 1.389-3.102 3.102c0 1.715 1.389 3.103 3.102 3.103z"/><path d="m74.218 414.506c1.713 0 3.102-1.39 3.102-3.103 0-1.714-1.389-3.103-3.102-3.103s-3.102 1.389-3.102 3.103 1.389 3.103 3.102 3.103z"/><path d="m63.842 424.882c1.713 0 3.102-1.389 3.102-3.103 0-1.713-1.389-3.102-3.102-3.102s-3.102 1.389-3.102 3.102c0 1.715 1.389 3.103 3.102 3.103z"/><path d="m43.842 404.882c1.713 0 3.102-1.389 3.102-3.103 0-1.713-1.389-3.102-3.102-3.102s-3.102 1.389-3.102 3.102c0 1.715 1.389 3.103 3.102 3.103z"/><path d="m54.218 414.506c1.713 0 3.102-1.39 3.102-3.103 0-1.714-1.389-3.103-3.102-3.103s-3.102 1.389-3.102 3.103 1.389 3.103 3.102 3.103z"/><path d="m43.842 424.882c1.713 0 3.102-1.389 3.102-3.103 0-1.713-1.389-3.102-3.102-3.102s-3.102 1.389-3.102 3.102c0 1.715 1.389 3.103 3.102 3.103z"/><path d="m34.218 94.506c1.713 0 3.102-1.39 3.102-3.103 0-1.714-1.389-3.103-3.102-3.103s-3.102 1.389-3.102 3.103 1.389 3.103 3.102 3.103z"/><path d="m34.218 114.506c1.713 0 3.102-1.39 3.102-3.103 0-1.714-1.389-3.103-3.102-3.103s-3.102 1.389-3.102 3.103 1.389 3.103 3.102 3.103z"/><path d="m34.218 134.506c1.713 0 3.102-1.39 3.102-3.103 0-1.714-1.389-3.103-3.102-3.103s-3.102 1.389-3.102 3.103 1.389 3.103 3.102 3.103z"/><path d="m34.218 154.506c1.713 0 3.102-1.39 3.102-3.103 0-1.714-1.389-3.103-3.102-3.103s-3.102 1.389-3.102 3.103 1.389 3.103 3.102 3.103z"/><path d="m34.218 174.506c1.713 0 3.102-1.39 3.102-3.103 0-1.714-1.389-3.103-3.102-3.103s-3.102 1.389-3.102 3.103 1.389 3.103 3.102 3.103z"/><path d="m34.218 194.506c1.713 0 3.102-1.39 3.102-3.103 0-1.714-1.389-3.103-3.102-3.103s-3.102 1.389-3.102 3.103 1.389 3.103 3.102 3.103z"/><path d="m34.218 214.506c1.713 0 3.102-1.39 3.102-3.103 0-1.714-1.389-3.103-3.102-3.103s-3.102 1.389-3.102 3.103 1.389 3.103 3.102 3.103z"/><path d="m34.218 234.506c1.713 0 3.102-1.39 3.102-3.103 0-1.714-1.389-3.103-3.102-3.103s-3.102 1.389-3.102 3.103 1.389 3.103 3.102 3.103z"/><path d="m34.218 254.506c1.713 0 3.102-1.39 3.102-3.103 0-1.714-1.389-3.103-3.102-3.103s-3.102 1.389-3.102 3.103 1.389 3.103 3.102 3.103z"/><path d="m34.218 274.506c1.713 0 3.102-1.39 3.102-3.103 0-1.714-1.389-3.103-3.102-3.103s-3.102 1.389-3.102 3.103 1.389 3.103 3.102 3.103z"/><path d="m34.218 294.506c1.713 0 3.102-1.39 3.102-3.103 0-1.714-1.389-3.103-3.102-3.103s-3.102 1.389-3.102 3.103 1.389 3.103 3.102 3.103z"/><path d="m34.218 314.506c1.713 0 3.102-1.39 3.102-3.103 0-1.714-1.389-3.103-3.102-3.103s-3.102 1.389-3.102 3.103 1.389 3.103 3.102 3.103z"/><path d="m34.218 334.506c1.713 0 3.102-1.39 3.102-3.103 0-1.714-1.389-3.103-3.102-3.103s-3.102 1.389-3.102 3.103 1.389 3.103 3.102 3.103z"/><path d="m34.218 354.506c1.713 0 3.102-1.39 3.102-3.103 0-1.714-1.389-3.103-3.102-3.103s-3.102 1.389-3.102 3.103 1.389 3.103 3.102 3.103z"/><path d="m34.218 374.506c1.713 0 3.102-1.39 3.102-3.103 0-1.714-1.389-3.103-3.102-3.103s-3.102 1.389-3.102 3.103 1.389 3.103 3.102 3.103z"/><path d="m34.218 394.506c1.713 0 3.102-1.39 3.102-3.103 0-1.714-1.389-3.103-3.102-3.103s-3.102 1.389-3.102 3.103 1.389 3.103 3.102 3.103z"/><path d="m34.218 414.506c1.713 0 3.102-1.39 3.102-3.103 0-1.714-1.389-3.103-3.102-3.103s-3.102 1.389-3.102 3.103 1.389 3.103 3.102 3.103z"/><path d="m492.511 77.892c-3.479-12.338-14.604-21.768-28.162-22.758-.138-.011-.276-.017-.413-.025-4.545-8.522-12.975-14.565-22.831-15.341-58.818-4.632-168.932 49.741-185.191 57.96-15.973-7.974-122.634-59.938-184.01-57.117-10.384.482-19.243 6.609-23.909 15.459-13.4.886-24.393 9.735-28.204 21.685-11.715 5.84-19.791 17.925-19.791 31.88v318.852c0 19.641 15.979 35.62 35.62 35.62h176.826c1.697 4.886 6.349 8.403 11.806 8.403h63.497c5.457 0 10.107-3.518 11.805-8.403h176.826c19.641 0 35.62-15.979 35.62-35.62v-318.852c0-13.837-7.935-25.848-19.489-31.743zm-24.981 297.446v-305.827c0-1.953-.185-3.867-.536-5.725 8.069 1.723 14.563 7.495 17.2 14.927-.117-.013-.231-.035-.352-.035-1.713 0-3.102 1.389-3.102 3.102 0 1.714 1.389 3.103 3.102 3.103.571 0 1.099-.165 1.559-.435.04.538.074 1.078.074 1.625v13.08c-.475-.296-1.031-.475-1.632-.475-1.713 0-3.102 1.389-3.102 3.102 0 1.714 1.389 3.103 3.102 3.103.601 0 1.157-.179 1.632-.475v14.745c-.475-.296-1.031-.475-1.632-.475-1.713 0-3.102 1.389-3.102 3.102 0 1.714 1.389 3.103 3.102 3.103.601 0 1.157-.179 1.632-.475v14.745c-.475-.296-1.031-.475-1.632-.475-1.713 0-3.102 1.389-3.102 3.102 0 1.714 1.389 3.103 3.102 3.103.601 0 1.157-.179 1.632-.475v14.745c-.475-.296-1.031-.475-1.632-.475-1.713 0-3.102 1.389-3.102 3.102 0 1.714 1.389 3.103 3.102 3.103.601 0 1.157-.179 1.632-.475v14.745c-.475-.296-1.031-.475-1.632-.475-1.713 0-3.102 1.389-3.102 3.102 0 1.714 1.389 3.103 3.102 3.103.601 0 1.157-.179 1.632-.475v14.745c-.475-.296-1.031-.475-1.632-.475-1.713 0-3.102 1.389-3.102 3.102 0 1.714 1.389 3.103 3.102 3.103.601 0 1.157-.179 1.632-.475v14.745c-.475-.296-1.031-.475-1.632-.475-1.713 0-3.102 1.389-3.102 3.102 0 1.714 1.389 3.103 3.102 3.103.601 0 1.157-.179 1.632-.475v14.745c-.475-.296-1.031-.475-1.632-.475-1.713 0-3.102 1.389-3.102 3.102 0 1.714 1.389 3.103 3.102 3.103.601 0 1.157-.179 1.632-.475v14.745c-.475-.296-1.031-.475-1.632-.475-1.713 0-3.102 1.389-3.102 3.102 0 1.714 1.389 3.103 3.102 3.103.601 0 1.157-.179 1.632-.475v14.745c-.475-.296-1.031-.475-1.632-.475-1.713 0-3.102 1.389-3.102 3.102 0 1.714 1.389 3.103 3.102 3.103.601 0 1.157-.179 1.632-.475v14.745c-.475-.296-1.031-.475-1.632-.475-1.713 0-3.102 1.389-3.102 3.102 0 1.714 1.389 3.103 3.102 3.103.601 0 1.157-.179 1.632-.475v14.745c-.475-.296-1.031-.475-1.632-.475-1.713 0-3.102 1.389-3.102 3.102 0 1.714 1.389 3.103 3.102 3.103.601 0 1.157-.179 1.632-.475v14.745c-.475-.296-1.031-.475-1.632-.475-1.713 0-3.102 1.389-3.102 3.102 0 1.714 1.389 3.103 3.102 3.103.601 0 1.157-.179 1.632-.475v14.745c-.475-.296-1.031-.475-1.632-.475-1.713 0-3.102 1.389-3.102 3.102 0 1.714 1.389 3.103 3.102 3.103.601 0 1.157-.179 1.632-.475v14.745c-.475-.296-1.031-.475-1.632-.475-1.713 0-3.102 1.389-3.102 3.102 0 1.714 1.389 3.103 3.102 3.103.601 0 1.157-.179 1.632-.475v14.745c-.475-.296-1.031-.475-1.632-.475-1.713 0-3.102 1.389-3.102 3.102 0 1.714 1.389 3.103 3.102 3.103.601 0 1.157-.179 1.632-.475v1.719c0 6.067-2.435 11.776-6.856 16.075-4.676 4.548-10.881 6.93-17.567 6.766-1.682-.047-3.375-.087-5.078-.12-.499-.343-1.103-.546-1.754-.546-.614 0-1.183.185-1.665.492-5.466-.076-11.031-.086-16.707-.021-.474-.294-1.028-.472-1.627-.472-.636 0-1.227.193-1.72.522-5.257.085-10.605.23-16.046.435-.565-.588-1.355-.957-2.234-.957-.968 0-1.821.452-2.39 1.147-4.841.211-9.755.467-14.745.771-.466-1.125-1.572-1.918-2.866-1.918-1.432 0-2.626.976-2.983 2.295-4.583.31-9.23.658-13.939 1.046.006-.08.024-.156.024-.238 0-1.714-1.389-3.103-3.102-3.103s-3.102 1.389-3.102 3.103c0 .262.042.513.103.756-4.86.429-9.787.897-14.783 1.408.545-.56.884-1.321.884-2.164 0-1.714-1.389-3.103-3.102-3.103s-3.102 1.389-3.102 3.103c0 1.071.543 2.016 1.369 2.573-14.829 1.566-30.259 3.484-46.327 5.76-.568-.645-1.391-1.059-2.317-1.059-1.243 0-2.307.735-2.803 1.791-4.686.68-9.424 1.388-14.218 2.128.072-.263.123-.533.123-.817 0-.769-.29-1.462-.753-2.004 8.409-3.143 16.738-6.084 24.97-8.817-.021.147-.045.293-.045.445 0 1.713 1.389 3.103 3.102 3.103s3.102-1.39 3.102-3.103c0-.846-.341-1.611-.89-2.171 8.213-2.652 16.326-5.096 24.321-7.326.068 1.653 1.42 2.976 3.09 2.976 1.713 0 3.102-1.389 3.102-3.103 0-.531-.146-1.023-.382-1.461 8.826-2.364 17.502-4.465 26.008-6.296.478.302 1.041.483 1.648.483 1.074 0 2.02-.546 2.577-1.376 4.896-1.009 9.735-1.93 14.51-2.756-.115.323-.188.666-.188 1.029 0 1.713 1.389 3.103 3.102 3.103s3.102-1.39 3.102-3.103c0-.728-.261-1.388-.68-1.916 14.497-2.323 28.39-3.78 41.549-4.335h-.001c1.537-.065 3.039-.234 4.501-.497.357.144.744.227 1.152.227.925 0 1.746-.413 2.315-1.056 12.606-3.747 21.373-14.907 21.373-28.488zm-186.785 66.498c.011.602.192 1.161.499 1.633-2.653.418-5.318.842-8.004 1.278 2.509-.991 5.01-1.956 7.505-2.911zm-20.564-337.094c17.375-8.683 125.032-61.148 180.283-56.824 10.592.833 18.891 10.318 18.891 21.594v305.827c0 11.823-9.247 21.13-21.508 21.646-.001 0-.001 0-.001 0-49.948 2.107-110.061 16.853-173.84 42.647-1.268.512-2.581.884-3.917 1.121l.095-335.985c0-.01-.003-.018-.003-.026zm-207.536-34.318c0-11.628 8.626-21.136 19.638-21.646 1.5-.07 3.03-.104 4.59-.104 59.05 0 159.537 48.532 175.136 56.248l-.094 335.58c-1.204-.288-2.388-.674-3.529-1.185-56.167-25.151-119.616-40.601-174.077-42.386-12.349-.404-21.662-9.692-21.662-21.604v-304.903zm-21.105 2.52c.536.93 1.528 1.562 2.678 1.562 1.713 0 3.102-1.39 3.102-3.103 0-1.098-.573-2.057-1.433-2.608 2.648-1.938 5.735-3.354 9.106-4.077-.342 1.848-.524 3.755-.524 5.706v8.317c-.202-.041-.412-.063-.627-.063-1.713 0-3.102 1.389-3.102 3.102 0 1.714 1.389 3.103 3.102 3.103.215 0 .425-.021.627-.063v13.923c-.202-.041-.412-.063-.627-.063-1.713 0-3.102 1.389-3.102 3.102 0 1.714 1.389 3.103 3.102 3.103.215 0 .425-.021.627-.063v13.923c-.202-.041-.412-.063-.627-.063-1.713 0-3.102 1.389-3.102 3.102 0 1.714 1.389 3.103 3.102 3.103.215 0 .425-.021.627-.063v13.923c-.202-.041-.412-.063-.627-.063-1.713 0-3.102 1.389-3.102 3.102 0 1.714 1.389 3.103 3.102 3.103.215 0 .425-.021.627-.063v13.923c-.202-.041-.412-.063-.627-.063-1.713 0-3.102 1.389-3.102 3.102 0 1.714 1.389 3.103 3.102 3.103.215 0 .425-.021.627-.063v13.923c-.202-.041-.412-.063-.627-.063-1.713 0-3.102 1.389-3.102 3.102 0 1.714 1.389 3.103 3.102 3.103.215 0 .425-.021.627-.063v13.923c-.202-.041-.412-.063-.627-.063-1.713 0-3.102 1.389-3.102 3.102 0 1.714 1.389 3.103 3.102 3.103.215 0 .425-.021.627-.063v13.923c-.202-.041-.412-.063-.627-.063-1.713 0-3.102 1.389-3.102 3.102 0 1.714 1.389 3.103 3.102 3.103.215 0 .425-.021.627-.063v13.923c-.202-.041-.412-.063-.627-.063-1.713 0-3.102 1.389-3.102 3.102 0 1.714 1.389 3.103 3.102 3.103.215 0 .425-.021.627-.063v13.923c-.202-.041-.412-.063-.627-.063-1.713 0-3.102 1.389-3.102 3.102 0 1.714 1.389 3.103 3.102 3.103.215 0 .425-.022.627-.064v13.923c-.202-.041-.412-.063-.627-.063-1.713 0-3.102 1.389-3.102 3.102 0 1.714 1.389 3.103 3.102 3.103.215 0 .425-.022.627-.064v13.923c-.202-.041-.412-.063-.627-.063-1.713 0-3.102 1.389-3.102 3.102 0 1.714 1.389 3.103 3.102 3.103.215 0 .425-.022.627-.064v13.923c-.202-.041-.412-.063-.627-.063-1.713 0-3.102 1.389-3.102 3.102 0 1.714 1.389 3.103 3.102 3.103.215 0 .425-.022.627-.064v13.923c-.202-.041-.412-.063-.627-.063-1.713 0-3.102 1.389-3.102 3.102 0 1.714 1.389 3.103 3.102 3.103.215 0 .425-.022.627-.064v13.923c-.202-.041-.412-.063-.627-.063-1.713 0-3.102 1.389-3.102 3.102 0 1.714 1.389 3.103 3.102 3.103.215 0 .425-.022.627-.064v10.511c0 1.179.073 2.336.201 3.475-.265-.074-.539-.126-.828-.126-1.713 0-3.102 1.389-3.102 3.102 0 1.714 1.389 3.103 3.102 3.103.735 0 1.4-.266 1.932-.692 2.355 7.723 7.756 14.002 14.967 17.604.008 1.707 1.393 3.088 3.101 3.088.903 0 1.708-.392 2.275-1.007 2.505.712 5.157 1.139 7.923 1.229 12.582.412 25.658 1.574 39.016 3.426-1.136.461-1.94 1.571-1.94 2.873 0 1.713 1.389 3.103 3.102 3.103s3.102-1.39 3.102-3.103c0-.992-.474-1.865-1.199-2.434 4.966.725 9.968 1.545 14.997 2.457.013 1.702 1.395 3.079 3.1 3.079 1.306 0 2.419-.81 2.876-1.953 14.591 2.847 29.363 6.452 44.065 10.759.535.934 1.529 1.57 2.682 1.57.509 0 .982-.134 1.405-.351 8.917 2.693 17.796 5.642 26.585 8.832.569.691 1.421 1.143 2.387 1.143.197 0 .389-.022.575-.058 8.197 3.033 16.309 6.272 24.285 9.713-4.052-.784-8.1-1.529-12.147-2.256.002-.042.013-.083.013-.126 0-1.713-1.389-3.102-3.102-3.102-1.385 0-2.545.914-2.943 2.167-15.186-2.617-30.332-4.82-45.417-6.613 1.082-.484 1.839-1.566 1.839-2.828 0-1.714-1.389-3.103-3.102-3.103s-3.102 1.389-3.102 3.103c0 1.01.49 1.897 1.237 2.465-5.062-.583-10.118-1.127-15.165-1.616.078-.271.132-.553.132-.849 0-1.714-1.389-3.103-3.102-3.103s-3.102 1.389-3.102 3.103c0 .1.02.193.029.29-4.66-.418-9.313-.802-13.957-1.14-.371-1.298-1.553-2.253-2.97-2.253-1.27 0-2.358.765-2.838 1.857-4.97-.326-9.931-.609-14.882-.844-.567-.619-1.374-1.014-2.28-1.014-.808 0-1.537.316-2.09.822-5.547-.232-11.082-.407-16.602-.523-.399-.186-.839-.299-1.308-.299-.434 0-.846.09-1.221.251-4.68-.084-9.353-.141-14.012-.141-7.748 0-15.467.122-23.153.354-.472-.289-1.021-.465-1.615-.465-.667 0-1.281.215-1.787.573-.434.015-.869.025-1.302.041-6.691.236-12.969-2.13-17.69-6.683-4.459-4.3-6.915-10.023-6.915-16.116v-319.108c0-5.315 1.874-10.201 5.016-14.085zm472.284 355.544c0 15.133-12.311 27.444-27.445 27.444h-180.226c-2.258 0-4.088 1.83-4.088 4.088 0 2.38-1.936 4.316-4.316 4.316h-63.497c-2.38 0-4.317-1.937-4.317-4.316 0-2.258-1.83-4.088-4.088-4.088h-180.227c-15.134 0-27.445-12.312-27.445-27.444v-318.853c0-8.591 3.975-16.263 10.173-21.298v317.779c0 8.333 3.344 16.147 9.416 22.001 6.241 6.021 14.865 9.305 23.662 8.968 63.31-2.303 128.974 3.383 195.159 16.896 3.381.69 6.816 1.036 10.276 1.036 2.92 0 5.858-.246 8.796-.737 77.803-13.029 141.645-18.63 195.165-17.142 8.884.246 17.222-2.976 23.495-9.076 6.018-5.852 9.332-13.643 9.332-21.937v-317.777c6.197 5.034 10.174 12.698 10.174 21.287v318.853z"/><path d="m88.496 118.704 125.711 36.727c.383.111.769.164 1.149.164 1.769 0 3.4-1.158 3.922-2.942.633-2.167-.611-4.436-2.777-5.07l-125.712-36.727c-2.166-.633-4.436.611-5.071 2.777-.633 2.167.611 4.437 2.778 5.071z"/><path d="m88.496 87.282 125.711 36.727c.383.111.769.164 1.149.164 1.769 0 3.4-1.158 3.922-2.941.633-2.168-.611-4.438-2.777-5.071l-125.712-36.727c-2.166-.633-4.436.611-5.071 2.777-.633 2.168.611 4.437 2.778 5.071z"/><path d="m88.234 150.665 125.712 36.727c.383.112.768.165 1.148.165 1.77 0 3.4-1.159 3.922-2.942.632-2.167-.611-4.436-2.778-5.07l-125.711-36.729c-2.164-.631-4.437.611-5.071 2.777-.632 2.168.611 4.438 2.778 5.072z"/><path d="m88.234 182.228 125.712 36.727c.383.112.768.165 1.148.165 1.77 0 3.4-1.159 3.922-2.942.632-2.168-.611-4.438-2.778-5.07l-125.711-36.729c-2.164-.632-4.437.612-5.071 2.777-.632 2.169.611 4.438 2.778 5.072z"/><path d="m88.234 214.046 125.712 36.728c.383.111.768.164 1.148.164 1.77 0 3.4-1.158 3.922-2.941.632-2.168-.611-4.438-2.778-5.071l-125.711-36.727c-2.164-.629-4.437.61-5.071 2.777-.632 2.167.611 4.437 2.778 5.07z"/><path d="m158.186 261.721-67.397-19.689c-2.166-.628-4.436.611-5.071 2.778-.633 2.167.611 4.437 2.777 5.07l67.397 19.69c.383.111.769.164 1.149.164 1.769 0 3.4-1.158 3.922-2.941.633-2.168-.61-4.438-2.777-5.072z"/><path d="m295.276 246.292c.379 0 .765-.053 1.148-.165l125.713-36.726c2.167-.634 3.41-2.903 2.777-5.07-.634-2.166-2.898-3.411-5.071-2.777l-125.713 36.726c-2.167.634-3.41 2.903-2.777 5.07.522 1.784 2.153 2.942 3.923 2.942z"/><path d="m420.105 233.513-125.713 36.728c-2.167.634-3.41 2.902-2.777 5.07.522 1.784 2.153 2.942 3.922 2.942.379 0 .766-.053 1.149-.165l125.712-36.727c2.167-.634 3.41-2.903 2.778-5.071-.634-2.165-2.897-3.408-5.071-2.777z"/><path d="m420.105 265.166-125.713 36.726c-2.167.634-3.41 2.903-2.777 5.071.522 1.784 2.153 2.942 3.922 2.942.379 0 .766-.054 1.149-.165l125.712-36.727c2.167-.634 3.41-2.903 2.778-5.071-.634-2.166-2.897-3.406-5.071-2.776z"/><path d="m420.105 294.813-125.713 36.727c-2.167.634-3.41 2.903-2.777 5.071.522 1.784 2.153 2.941 3.922 2.941.379 0 .766-.053 1.149-.164l125.712-36.728c2.167-.634 3.41-2.903 2.778-5.07-.634-2.167-2.897-3.408-5.071-2.777z"/><path d="m420.105 324.461-125.713 36.727c-2.167.634-3.41 2.903-2.777 5.07.522 1.785 2.153 2.942 3.922 2.942.379 0 .766-.053 1.149-.165l125.712-36.727c2.167-.634 3.41-2.903 2.778-5.07-.634-2.167-2.897-3.409-5.071-2.777z"/><path d="m316.542 164.818c.379 0 .765-.053 1.149-.165l67.397-19.689c2.167-.634 3.41-2.902 2.777-5.07-.634-2.166-2.897-3.406-5.071-2.777l-67.397 19.689c-2.167.634-3.41 2.903-2.777 5.07.522 1.784 2.152 2.942 3.922 2.942z"/></g></svg>