<?xml version="1.0" encoding="UTF-8"?>
<svg xmlns="http://www.w3.org/2000/svg" xmlns:xlink="http://www.w3.org/1999/xlink" width="322.14pt" height="196.65pt" viewBox="0 0 322.14 196.65" version="1.1">
<defs>
<clipPath id="clip1">
  <path d="M 228 138 L 265 138 L 265 196.648438 L 228 196.648438 Z M 228 138 "/>
</clipPath>
<clipPath id="clip2">
  <path d="M 0 138 L 50 138 L 50 196.648438 L 0 196.648438 Z M 0 138 "/>
</clipPath>
<clipPath id="clip3">
  <path d="M 170 138 L 223 138 L 223 196.648438 L 170 196.648438 Z M 170 138 "/>
</clipPath>
<clipPath id="clip4">
  <path d="M 55 138 L 108 138 L 108 196.648438 L 55 196.648438 Z M 55 138 "/>
</clipPath>
<clipPath id="clip5">
  <path d="M 114 103 L 138 103 L 138 196.648438 L 114 196.648438 Z M 114 103 "/>
</clipPath>
<clipPath id="clip6">
  <path d="M 140 103 L 169 103 L 169 196.648438 L 140 196.648438 Z M 140 103 "/>
</clipPath>
<clipPath id="clip7">
  <path d="M 263 34 L 322.140625 34 L 322.140625 94 L 263 94 Z M 263 34 "/>
</clipPath>
<clipPath id="clip8">
  <path d="M 263 138 L 322 138 L 322 196.648438 L 263 196.648438 Z M 263 138 "/>
</clipPath>
</defs>
<g id="surface1">
<g clip-path="url(#clip1)" clip-rule="nonzero">
<path style=" stroke:none;fill-rule:nonzero;fill:rgb(0%,61.599731%,67.799377%);fill-opacity:1;" d="M 257.71875 138.382813 L 251.347656 138.382813 C 238.757813 138.382813 228.527344 148.625 228.527344 161.21875 C 228.527344 161.222656 228.53125 189.683594 228.53125 189.683594 C 228.53125 193.527344 231.636719 196.640625 235.484375 196.636719 C 239.320313 196.636719 242.433594 193.523438 242.433594 189.679688 L 242.429688 161.21875 C 242.429688 156.296875 246.429688 152.292969 251.351563 152.292969 L 257.722656 152.292969 C 261.558594 152.285156 264.671875 149.179688 264.671875 145.335938 C 264.671875 141.492188 261.558594 138.382813 257.71875 138.382813 "/>
</g>
<g clip-path="url(#clip2)" clip-rule="nonzero">
<path style=" stroke:none;fill-rule:nonzero;fill:rgb(0%,61.599731%,67.799377%);fill-opacity:1;" d="M 29.117188 138.394531 C 13.0625 138.394531 0 151.464844 0 167.519531 C 0 183.570313 13.0625 196.636719 29.117188 196.636719 L 42.898438 196.636719 C 46.675781 196.636719 49.738281 193.574219 49.738281 189.792969 C 49.738281 186.015625 46.675781 182.949219 42.898438 182.949219 L 29.117188 182.949219 C 20.609375 182.949219 13.679688 176.027344 13.679688 167.519531 C 13.679688 159.011719 20.609375 152.085938 29.117188 152.085938 L 42.9375 152.085938 C 46.71875 152.085938 49.785156 149.019531 49.785156 145.242188 C 49.785156 141.460938 46.71875 138.394531 42.9375 138.394531 "/>
</g>
<g clip-path="url(#clip3)" clip-rule="nonzero">
<path style=" stroke:none;fill-rule:nonzero;fill:rgb(0%,61.599731%,67.799377%);fill-opacity:1;" d="M 170.402344 145.230469 L 170.402344 170.808594 C 170.402344 185.054688 181.984375 196.636719 196.222656 196.636719 C 210.464844 196.636719 222.046875 185.054688 222.046875 170.808594 L 222.046875 145.265625 C 222.046875 141.472656 218.976563 138.410156 215.195313 138.410156 C 211.410156 138.410156 208.339844 141.472656 208.339844 145.265625 L 208.339844 170.808594 C 208.339844 177.492188 202.902344 182.929688 196.222656 182.929688 C 189.542969 182.929688 184.109375 177.492188 184.109375 170.808594 L 184.109375 145.230469 C 184.109375 141.4375 181.042969 138.367188 177.253906 138.367188 C 173.472656 138.367188 170.402344 141.4375 170.402344 145.230469 "/>
</g>
<g clip-path="url(#clip4)" clip-rule="nonzero">
<path style=" stroke:none;fill-rule:nonzero;fill:rgb(0%,61.599731%,67.799377%);fill-opacity:1;" d="M 55.628906 145.253906 L 55.628906 170.808594 C 55.628906 185.054688 67.21875 196.636719 81.453125 196.636719 C 95.6875 196.636719 107.273438 185.054688 107.273438 170.808594 L 107.273438 145.242188 C 107.273438 141.449219 104.210938 138.386719 100.425781 138.386719 C 96.640625 138.386719 93.570313 141.449219 93.570313 145.242188 L 93.570313 170.808594 C 93.570313 177.492188 88.136719 182.929688 81.453125 182.929688 C 74.777344 182.929688 69.339844 177.492188 69.339844 170.808594 L 69.339844 145.253906 C 69.339844 141.460938 66.273438 138.390625 62.484375 138.390625 C 58.699219 138.390625 55.628906 141.460938 55.628906 145.253906 "/>
</g>
<g clip-path="url(#clip5)" clip-rule="nonzero">
<path style=" stroke:none;fill-rule:nonzero;fill:rgb(0%,61.599731%,67.799377%);fill-opacity:1;" d="M 127.640625 110.171875 C 127.640625 106.449219 124.621094 103.4375 120.90625 103.4375 C 117.175781 103.4375 114.164063 106.449219 114.164063 110.171875 L 114.164063 179.582031 C 114.164063 188.988281 121.8125 196.636719 131.210938 196.636719 C 134.9375 196.636719 137.949219 193.617188 137.949219 189.894531 C 137.949219 186.171875 134.9375 183.15625 131.210938 183.15625 C 129.246094 183.15625 127.640625 181.550781 127.640625 179.582031 "/>
</g>
<g clip-path="url(#clip6)" clip-rule="nonzero">
<path style=" stroke:none;fill-rule:nonzero;fill:rgb(0%,61.599731%,67.799377%);fill-opacity:1;" d="M 161.589844 138.382813 C 165.441406 138.382813 168.570313 135.261719 168.570313 131.402344 C 168.570313 127.546875 165.441406 124.425781 161.589844 124.425781 L 154.214844 124.425781 L 154.214844 110.171875 C 154.214844 106.449219 151.195313 103.4375 147.476563 103.4375 C 143.753906 103.4375 140.738281 106.449219 140.738281 110.171875 L 140.738281 179.582031 C 140.738281 188.988281 148.382813 196.636719 157.789063 196.636719 C 161.511719 196.636719 164.535156 193.617188 164.535156 189.894531 C 164.535156 186.171875 161.511719 183.15625 157.789063 183.15625 C 155.8125 183.15625 154.214844 181.550781 154.214844 179.582031 L 154.214844 138.382813 "/>
</g>
<path style=" stroke:none;fill-rule:nonzero;fill:rgb(0%,61.599731%,67.799377%);fill-opacity:1;" d="M 94.253906 35.484375 C 90.691406 34.019531 86.613281 35.726563 85.152344 39.296875 L 73.441406 67.859375 L 61.730469 39.296875 C 60.269531 35.726563 56.191406 34.019531 52.628906 35.484375 C 49.0625 36.945313 47.351563 41.019531 48.816406 44.589844 L 66.964844 88.855469 C 67.984375 91.359375 70.296875 92.941406 72.820313 93.160156 C 72.878906 93.167969 72.941406 93.175781 73 93.175781 C 73.148438 93.179688 73.292969 93.191406 73.441406 93.191406 C 73.589844 93.191406 73.734375 93.179688 73.882813 93.175781 C 73.945313 93.175781 74.003906 93.167969 74.066406 93.160156 C 76.585938 92.941406 78.898438 91.359375 79.921875 88.855469 L 98.070313 44.589844 C 99.527344 41.019531 97.824219 36.945313 94.253906 35.484375 "/>
<path style=" stroke:none;fill-rule:nonzero;fill:rgb(0%,61.599731%,67.799377%);fill-opacity:1;" d="M 43.320313 86.214844 C 43.320313 90.066406 40.199219 93.191406 36.339844 93.191406 C 32.484375 93.191406 29.359375 90.066406 29.359375 86.214844 L 29.359375 41.945313 C 29.359375 38.085938 32.484375 34.960938 36.339844 34.960938 C 40.199219 34.960938 43.320313 38.085938 43.320313 41.945313 "/>
<path style=" stroke:none;fill-rule:nonzero;fill:rgb(0%,61.599731%,67.799377%);fill-opacity:1;" d="M 43.378906 21.347656 C 43.378906 25.246094 40.222656 28.40625 36.328125 28.40625 C 32.429688 28.40625 29.273438 25.246094 29.273438 21.347656 C 29.273438 17.449219 32.429688 14.289063 36.328125 14.289063 C 40.222656 14.289063 43.378906 17.449219 43.378906 21.347656 "/>
<path style=" stroke:none;fill-rule:nonzero;fill:rgb(0%,61.599731%,67.799377%);fill-opacity:1;" d="M 257.382813 86.214844 C 257.382813 90.066406 254.269531 93.191406 250.410156 93.191406 C 246.558594 93.191406 243.429688 90.066406 243.429688 86.214844 L 243.429688 41.945313 C 243.429688 38.085938 246.558594 34.960938 250.410156 34.960938 C 254.269531 34.960938 257.382813 38.085938 257.382813 41.945313 "/>
<path style=" stroke:none;fill-rule:nonzero;fill:rgb(0%,61.599731%,67.799377%);fill-opacity:1;" d="M 257.449219 21.347656 C 257.449219 25.246094 254.292969 28.40625 250.398438 28.40625 C 246.503906 28.40625 243.34375 25.246094 243.34375 21.347656 C 243.34375 17.449219 246.503906 14.289063 250.398438 14.289063 C 254.292969 14.289063 257.449219 17.449219 257.449219 21.347656 "/>
<path style=" stroke:none;fill-rule:nonzero;fill:rgb(0%,61.599731%,67.799377%);fill-opacity:1;" d="M 130.207031 34.949219 L 123.839844 34.949219 C 111.253906 34.949219 101.015625 45.191406 101.015625 57.777344 L 101.019531 86.242188 C 101.019531 90.082031 104.132813 93.195313 107.972656 93.191406 C 111.8125 93.191406 114.925781 90.078125 114.925781 86.242188 L 114.917969 57.773438 C 114.917969 52.855469 118.921875 48.851563 123.839844 48.851563 L 130.210938 48.851563 C 134.050781 48.851563 137.164063 45.742188 137.164063 41.902344 C 137.164063 38.058594 134.046875 34.949219 130.207031 34.949219 "/>
<path style=" stroke:none;fill-rule:nonzero;fill:rgb(0%,61.599731%,67.799377%);fill-opacity:1;" d="M 231.378906 34.949219 L 225.011719 34.949219 C 212.425781 34.949219 202.183594 45.191406 202.183594 57.777344 L 202.191406 86.242188 C 202.191406 90.082031 205.304688 93.191406 209.144531 93.191406 C 212.984375 93.191406 216.09375 90.078125 216.09375 86.242188 L 216.089844 57.773438 C 216.089844 52.855469 220.09375 48.851563 225.011719 48.851563 L 231.382813 48.851563 C 235.226563 48.851563 238.335938 45.742188 238.335938 41.902344 C 238.335938 38.058594 235.21875 34.949219 231.378906 34.949219 "/>
<path style=" stroke:none;fill-rule:nonzero;fill:rgb(0%,61.599731%,67.799377%);fill-opacity:1;" d="M 136.0625 64.070313 C 136.0625 80.136719 149.128906 93.207031 165.210938 93.207031 C 168.988281 93.207031 172.054688 90.144531 172.054688 86.359375 C 172.054688 82.582031 168.988281 79.511719 165.210938 79.511719 C 156.683594 79.511719 149.753906 72.585938 149.753906 64.070313 C 149.753906 55.554688 156.683594 48.628906 165.210938 48.628906 C 173.726563 48.628906 180.648438 55.554688 180.648438 64.070313 L 180.648438 86.339844 C 180.648438 90.121094 183.71875 93.1875 187.5 93.1875 C 191.28125 93.1875 194.347656 90.121094 194.347656 86.339844 L 194.347656 64.070313 C 194.347656 48.007813 181.269531 34.941406 165.210938 34.941406 C 149.128906 34.941406 136.0625 48.007813 136.0625 64.070313 "/>
<path style=" stroke:none;fill-rule:nonzero;fill:rgb(0%,61.599731%,67.799377%);fill-opacity:1;" d="M 13.644531 6.746094 C 13.644531 3.023438 10.628906 0.0078125 6.90625 0.0078125 C 3.183594 0.0078125 0.167969 3.023438 0.167969 6.746094 L 0.167969 76.144531 C 0.167969 85.546875 7.816406 93.191406 17.21875 93.191406 C 20.9375 93.191406 23.957031 90.179688 23.957031 86.453125 C 23.957031 82.734375 20.9375 79.714844 17.21875 79.714844 C 15.246094 79.714844 13.644531 78.113281 13.644531 76.144531 "/>
<g clip-path="url(#clip7)" clip-rule="nonzero">
<path style=" stroke:none;fill-rule:nonzero;fill:rgb(0%,61.599731%,67.799377%);fill-opacity:1;" d="M 263.867188 64.070313 C 263.867188 80.136719 276.9375 93.207031 293.003906 93.207031 C 296.785156 93.207031 299.851563 90.144531 299.851563 86.359375 C 299.851563 82.582031 296.785156 79.511719 293.003906 79.511719 C 284.488281 79.511719 277.558594 72.585938 277.558594 64.070313 C 277.558594 55.554688 284.488281 48.628906 293.003906 48.628906 C 301.519531 48.628906 308.445313 55.554688 308.445313 64.070313 L 308.445313 86.339844 C 308.445313 90.121094 311.511719 93.1875 315.292969 93.1875 C 319.074219 93.1875 322.136719 90.121094 322.136719 86.339844 L 322.136719 64.070313 C 322.136719 48.007813 309.066406 34.941406 293.003906 34.941406 C 276.9375 34.941406 263.867188 48.007813 263.867188 64.070313 "/>
</g>
<g clip-path="url(#clip8)" clip-rule="nonzero">
<path style=" stroke:none;fill-rule:nonzero;fill:rgb(0%,61.599731%,67.799377%);fill-opacity:1;" d="M 263.625 167.511719 C 263.625 183.582031 276.691406 196.648438 292.757813 196.648438 C 296.539063 196.648438 299.605469 193.585938 299.605469 189.800781 C 299.605469 186.027344 296.539063 182.953125 292.757813 182.953125 C 284.242188 182.953125 277.316406 176.027344 277.316406 167.511719 C 277.316406 159 284.242188 152.070313 292.757813 152.070313 C 301.273438 152.070313 308.203125 159 308.203125 167.511719 L 308.203125 189.78125 C 308.203125 193.5625 311.269531 196.628906 315.050781 196.628906 C 318.828125 196.628906 321.894531 193.5625 321.894531 189.78125 L 321.894531 167.511719 C 321.894531 151.445313 308.820313 138.367188 292.757813 138.367188 C 276.691406 138.367188 263.625 151.445313 263.625 167.511719 "/>
</g>
</g>
</svg>
